<?xml version="1.0" encoding="UTF-8"?>
<svg id="Layer_1" xmlns="http://www.w3.org/2000/svg" version="1.1" viewBox="0 0 64 17.7">
  <!-- Generator: Adobe Illustrator 29.5.1, SVG Export Plug-In . SVG Version: 2.1.0 Build 141)  -->
  <defs>
    <style>
      .st0 {
        fill: #006b54;
      }

      .st1 {
        fill: #fcc917;
      }
    </style>
  </defs>
  <path class="st1" d="M4.1.9h.6c0,0,.1,0,.1-.1,0,0,0,0,0,0V0c0,0,0,0,0,0,0,0,0,0,0,0h.4C5.3,0,5.3,0,5.3.2h0v.5c0,0,0,.2.2.2,0,0,0,0,0,0h.4c.1,0,.2,0,.2.1,0,0,0,0,0,0v.3c0,0,0,.1-.1.1h-.6c0,0-.1,0-.1.1v2.1c0,.1,0,.3.2.3,2.4.7,3.7,2.3,3.7,5,0,.1,0,.2.2.3,0,0,.2,0,.3,0,0,0,.2,0,.2.1,0,0,0,0,0,0v.8c0,.1,0,.2-.2.2,0,0,0,0,0,0-.2,0-.4,0-.5,0-.2.1-.2.2,0,.3.2.1.4.1.5,0,.1,0,.2,0,.2.1,0,0,0,0,0,0v.7c0,.1-.1.2-.2.2h-.3c-.1,0-.3.1-.3.3v5.1c0,.1,0,.2-.2.2H1c-.1,0-.2-.1-.2-.2h0v-5.1c0-.1-.1-.3-.2-.3,0,0,0,0,0,0H.2c-.1,0-.2,0-.2-.1,0,0,0,0,0,0v-.6c0-.1.1-.3.2-.3.8,0,1.6-.2,2.5-.4,0,0,0,0,0,0,0,0,0,0,0,0H.2C0,10.3,0,10.2,0,10.1v-.7c0,0,0-.2.1-.2l2.6-.3s0,0,0,0c0,0,0,0,0,0h-1.7c-.1,0-.2,0-.2-.2,0,0,0,0,0,0,.2-2.4,1.4-4,3.7-4.6.1,0,.2-.2.2-.3V1.5c0,0,0-.1-.1-.1,0,0,0,0,0,0-.2,0-.3,0-.4,0,0,0-.2,0-.2,0,0,0,0,0,0,0v-.3c0,0,0-.1.1-.1h0ZM2.9,11.8c-.2,0-.3.3-.3.6h0c0,.3.1.6.3.6.2,0,.3-.3.3-.6h0c0-.3-.1-.6-.3-.6ZM4.3,12.5s.2-.1.5-.3c0,0,0,0,0-.2,0,0,0,0,0,0-.5-.2-.9-.2-1,0-.2.2-.2.5,0,1.1,0,0,0,0,.1,0,0,0,0,0,0,0,.2-.3.3-.5.3-.5ZM5.4,11.9c0,0-.1.4,0,.9,0,.1.1.2.2.2,0,0,.2,0,.2-.2,0-.2.1-.3.1-.4s.2,0,.4-.1c.1,0,.2-.1.2-.2,0,0,0-.2-.2-.2-.5,0-.8,0-.9,0ZM7,12c0,0-.1.4,0,.9,0,.1.1.2.2.2,0,0,.1,0,.1-.1.1-.3.2-.4.2-.4,0,0,.2,0,.4-.2,0,0,.1-.1.1-.2,0,0,0-.1-.1-.1-.5,0-.8,0-.9,0ZM3.2,13.7c0-.1-.1-.2-.2-.2h0c-.1,0-.2.1-.2.2h0s0,2.3,0,2.3c0,.1.1.2.2.2h0c.1,0,.2-.1.2-.2h0s0-2.3,0-2.3ZM4.3,14.1s.2-.1.5-.3c0,0,0,0,0-.2,0,0,0,0,0,0-.5-.2-.9-.2-1.1,0-.2.2-.2.5,0,1.1,0,0,0,0,.2,0,0,0,0,0,0,0,.2-.3.3-.5.3-.5ZM5.4,13.6c0,0,0,.4,0,.9,0,0,0,.1,0,.1.1,0,.2,0,.3,0,0,0,0,0,0-.1,0-.2,0-.3,0-.3,0,0,.2,0,.3,0,0,0,.1,0,.1,0,0-.1.1-.2,0-.3,0,0,0,0-.1,0-.5,0-.8,0-.9,0ZM7,13.6c-.1.1-.1.4,0,.9,0,.1.1.2.2.2,0,0,.1,0,.1-.1.1-.3.2-.4.2-.4,0,0,.2,0,.4-.2,0,0,.1-.1,0-.2,0,0,0-.1-.2-.1-.5,0-.8,0-.9,0ZM5.4,15.2c0,0,0,.4,0,.9,0,0,0,.2.2.2.1,0,.2,0,.3-.1,0,0,0-.1,0-.2,0-.1,0-.2,0-.2,0,0,.1,0,.2,0,.1,0,.2,0,.2,0,0,0,.1-.2.1-.3,0,0,0-.2-.2-.2-.5,0-.8,0-.9,0ZM4.3,15.7s.2,0,.4-.1c.1,0,.2-.1.2-.3,0-.1-.1-.2-.2-.2-.5,0-.8,0-.9,0,0,0,0,.4,0,.9,0,.1.1.2.2.2,0,0,.2,0,.2-.2,0-.2,0-.4.1-.4ZM7.5,15.7s.2,0,.4-.1c.1,0,.2-.1.2-.3,0,0,0-.1-.2-.2-.5,0-.8,0-.9,0-.1.1-.1.4,0,.9,0,.1.1.2.2.2,0,0,.2,0,.2-.2,0-.3.1-.4.1-.4Z"/>
  <path class="st0" d="M12.8,17.7c0,0-.2,0-.2,0,0,0,0,0,0,0l-.4-3.4c0,0,0-.2.1-.2,0,0,0,0,0,0h.2c.1,0,.2,0,.2.1.4,1.6,1.5,2.5,3.2,2.7.9.1,1.6,0,2.2-.4,1.7-1.1,1.6-3.4-.3-4.2-1.5-.7-2.7-1.2-3.4-1.5-2.4-1.1-2.6-4.4,0-5.4,1.3-.5,2.6-.6,4.1-.3.5.1.7,0,1.1-.3,0,0,.1,0,.2,0,0,0,0,0,0,0l.3,2.9c0,.1,0,.3-.2.3h-.2c-.1,0-.3,0-.3-.2-.2-1.5-1.3-2.2-3.2-2.2-2.6.1-3.1,2.9-.8,4,2.7,1.2,5.4,1.9,5.3,4.7-.2,3.6-4.6,3.6-7.2,3-.1,0-.2,0-.3,0l-.5.3Z"/>
  <path class="st0" d="M27.8,5.8c-.1,0-.3-.1-.3-.3v-.2c0-.1.1-.3.3-.3h8.3c.2,0,.3.1.3.3,0,0,0,0,0,0l-.2,2.3c0,.1-.1.2-.2.2,0,0,0,0,0,0h0c-.2,0-.3-.2-.3-.3,0-1.1-.4-1.8-1.7-1.8-1,0-2.2,0-3.4,0-.2,0-.3.2-.3.3v4.4c0,.1,0,.2.2.2,1,0,2.2,0,3.6,0,.7,0,1-.4,1.1-1,0-.2.2-.3.3-.3h.1c0,0,0,0,0,0v3.5c0,0,0,.1-.1.1h-.1c-.2,0-.3-.1-.3-.3,0-.5-.2-.9-.4-1.1,0-.1-.2-.2-.4-.2h-3.8c-.2,0-.3.1-.3.3v3.8c0,.4.3.7.6.7.6.1,1.2.2,1.9.1,1.7,0,3.4,0,3.9-1.8,0-.1.2-.2.3-.2h0c.1,0,.2.1.2.3,0,0,0,0,0,0-.2,1.3-.4,2.1-.6,2.4,0,0-.1.1-.2.1h-8.5c-.1,0-.2,0-.2-.2h0c0-.2,0-.3.2-.4.5,0,.7-.2.8-.4,0,0,0,0,0-.1V6.3c0-.3-.1-.5-.4-.5,0,0,0,0,0,0h-.6Z"/>
  <path class="st0" d="M63.9,16.9c0,0,.1,0,.1.2,0,0,0,0,0,0h0c0,.3-.2.4-.4.4h-3.4s0,0,0,0c-.1-.1-.2-.2-.2-.3,0,0,0-.1.2-.2.3,0,.5-.2.6-.3,0,0,.1-.2,0-.4l-1-2.9c0-.1-.2-.2-.3-.2h-4.2c-.1,0-.3,0-.3.2l-1,2.8c0,.2,0,.4.3.5l.7.3c.1,0,.2.2.2.4,0,.1-.1.2-.3.2h-2.9c-.2,0-.3-.1-.3-.3,0-.1,0-.2.2-.2.6-.3,1-.8,1.3-1.5,1.2-2.7,2.6-6.1,4.2-10.1,0-.2.4-.3.6-.2.1,0,.2.2.3.3,1.2,3.7,2.6,7.3,4.4,11,.2.4.6.6,1.2.7ZM55.5,12c0,0,0,.2.1.3,0,0,0,0,0,0h3.5c.1,0,.2,0,.2-.1,0,0,0,0,0,0l-1.7-4.5c0-.1-.1-.2-.2-.1,0,0,0,0-.1.1l-1.8,4.5Z"/>
  <path class="st0" d="M40.6,7.8c-.1,1.4-.1,3.8,0,7.4,0,.9.5,1.4,1.4,1.4.2,0,.4.2.4.4h0c0,.2,0,.3-.2.3,0,0,0,0,0,0-1.2,0-2.5-.1-3.8,0,0,0-.2,0-.2-.1,0-.1,0-.3.1-.3,0,0,0,0,0,0,.8-.3,1.1-.5,1.2-1.4.2-2.6.3-5.5.2-8.6,0-.1,0-.3-.1-.4-.3-.5-.8-.7-1.4-.7-.2,0-.3-.1-.3-.3h0c0-.2,0-.3.2-.3h2.3c.1,0,.3,0,.4.2.4.7.9,1.2,1.3,1.7,2.8,2.8,5.4,5.3,7.6,7.4,0,0,.1,0,.2,0,0,0,0,0,0,0v-7.7c0-.4-.4-.8-.8-.8h-.8c-.1,0-.2-.1-.2-.2v-.2c0-.1,0-.2.2-.2h4c.1,0,.2,0,.2.2h0c0,.2,0,.3-.2.3-.4,0-.7.2-.9.3-.1,0-.2.2-.3.4-.1.3-.2.9-.2,1.7-.2,3-.2,6.1-.1,9.3,0,.2-.1.3-.3.3-.1,0-.2,0-.3-.1-.7-1-1.5-1.9-2.3-2.7-2.4-2.5-4.8-4.8-7-7,0,0-.1,0-.2,0,0,0,0,0,0,0Z"/>
  <path class="st0" d="M23.2,11.2c0-2.4,0-4,0-4.7,0-.6-.5-.9-1.4-.8-.2,0-.3-.1-.3-.3,0,0,0,0,0,0h0c0-.2.1-.3.3-.3,0,0,0,0,0,0h4.6c.1,0,.2,0,.2.2,0,0,0,0,0,0h0c0,.3,0,.4-.2.4-.7,0-1.2.1-1.4.2-.2.1-.3.3-.3.6,0,.8,0,2.4,0,4.7s0,4,0,4.7c0,.6.5.9,1.4.8.2,0,.3.1.3.3,0,0,0,0,0,0h0c0,.2-.1.3-.3.3,0,0,0,0,0,0h-4.6c-.1,0-.2,0-.2-.2,0,0,0,0,0,0h0c0-.3,0-.4.2-.4.7,0,1.2-.1,1.4-.2.2-.1.3-.3.3-.6,0-.8,0-2.4,0-4.7Z"/>
</svg>