<?xml version="1.0" encoding="utf-8"?>
<!-- Generator: Adobe Illustrator 22.1.0, SVG Export Plug-In . SVG Version: 6.00 Build 0)  -->
<svg version="1.1" id="Layer_1" xmlns="http://www.w3.org/2000/svg" xmlns:xlink="http://www.w3.org/1999/xlink" x="0px" y="0px"
	 width="300px" height="92.98px" viewBox="0 0 300 92.98" enable-background="new 0 0 300 92.98" xml:space="preserve">
<path d="M17,77.42c-0.07-2.74,0.46-6.3,0.92-8.8l3.8-22.93h4.13c-1.88-3-2.35-5.99-2.4-8.03c-0.03-1.47,1.72-11.8,2.47-16.18
	c0.46-2.62,0.93-4.73,1.47-6.55C20.6,10.85,0.5,0.19,0.5,0.19l54.73-0.02c6.39,0,25.12-1.14,25.52,15.39
	c0.04,1.94-3.99,26.44-3.99,26.44h-4.81c1.87,2.57,2.91,5.53,2.98,8.69c0.03,1.35-3.22,20.79-3.22,20.8
	C68.36,90.77,60.2,92.83,42.27,92.83C31.83,92.83,17.35,92.66,17,77.42 M112.87,92.39h44.61c0.05-0.28,3.39-19.79,3.46-20.17h-13.59
	l3.11-18.24h13.57c0.05-0.27,3.38-19.59,3.46-19.98h-13.6l1.75-10.47h13.56c0.05-0.28,3.39-19.49,3.45-19.88h-44.8
	C127.79,3.92,112.93,91.99,112.87,92.39 M299.5,92.55V3.48h-84.67l-2.88,16.85l-1.73-16.85h-31.13l-15.03,89.08h28.29l3.28-19.27
	l2.22,19.27h29.57l14.66-81.39l16.58,7.44l-25.74,73.95h30.84l4.43-15.98h2.78l-1.16,15.98H299.5z M105.96,92.11l15.05-89.13H89.5
	L74.46,92.11H105.96z"/>
<path fill="#006747" d="M75.95,23.63L73.5,38.19H60.54c6,2.87,11.78,5.99,10.24,15.71l-2.84,16.87c-1.09,6.26-2.34,11.7-6.78,14.86
	c-4,2.84-9.76,3.38-18.99,3.38c-9.4,0-21.09,0-21.36-11.59c-0.04-1.89,0.26-4.74,0.86-8.04l3.3-19.88h11.23
	c-3.15-1.52-8.76-4.78-8.93-11.84c-0.03-1.15,2.41-15.42,2.42-15.44c0.68-3.9,1.45-7.03,2.67-9.58C28.2,10.41,14.69,4,14.69,4
	l40.63-0.01C74.58,3.99,78.94,7.64,75.95,23.63z M166.22,19.69l2.24-12.95h-37.65l-13.79,81.62l37.49,0.01l2.23-12.95h-13.57
	l4.3-25.28h13.58l2.23-12.94h-13.58l2.94-17.51H166.22z M217.94,6.73l-6.77,39.9l-0.02,0.1c-1.74-15.91-4.3-40-4.3-40h-24.65
	l-13.79,81.63h20.81c0,0,6.39-37.15,6.91-40.19c2.1,16.11,5.03,40.19,5.03,40.19h23.12l13.95-81.63H217.94z M78.89,88.36h23.91
	l13.78-81.63h-23.9L78.89,88.36z M273.75,88.83c0,0,0.85-11.82,1.16-16.28h-9.55c-1,3.68-4.43,16.28-4.43,16.28h-22.84l25.51-73.61
	L243.88,7.2l51.82,0.02l0.22,81.62H273.75z M275.92,59.74c0.18-4.13,0.79-18.7,1.3-30.86c-3.19,11.47-7.11,25.53-8.59,30.86H275.92z
	"/>
<path fill="#FFC72C" d="M74.1,15.55c0.03,1.42-3,19.83-3,19.83H52.7l2.56-14.45c0.07-0.52,0.09-0.89,0.09-1.09
	c0-0.04-0.02-1.18-1.67-1.18c-1.5,0-2.15,0.66-2.43,2.52l-2.05,11.9c-0.1,0.58-0.09,1.09-0.08,1.54c0.02,0.7,0.23,1.37,2.68,2.48
	l9.7,4.63c4.3,2.11,6.71,5.28,6.79,8.94c0.02,0.74-3.12,19.51-3.12,19.51c-2.41,13.9-5.43,16-23.08,16
	c-11.03,0-18.27-0.62-18.45-8.75c-0.05-1.7,0.26-4.44,0.82-7.52l2.92-17.6h18.52c0,0-3.5,20.64-3.5,20.74
	c0.01,0.38,0.03,1.27,1.8,1.27c1.21,0,1.98-0.43,2.3-2.62l2.82-16.24l0.2-1.36c-0.02-0.78-0.22-1.35-2.68-2.57l-10.19-4.91
	c-4.26-2.09-6.46-5.1-6.55-8.94l2.38-14.89c0.94-5.35,1.98-9.1,4.21-11.6c-2.1-0.9-9.7-4.38-9.7-4.38l28.44-0.01
	C66.92,6.81,73.92,7.39,74.1,15.55z M120.26,85.63h31.96l1.3-7.5h-13.57c0.3-1.73,5.02-29.48,5.23-30.72h13.59l1.29-7.5H146.5
	c0.28-1.68,3.64-21.74,3.84-22.96h13.59l1.3-7.5h-32.1L120.26,85.63z M220.25,9.46c0,0-7.99,48.33-9.56,57.87
	c-1.05-9.59-6.3-57.87-6.3-57.87h-19.87l-12.86,76.17h15.29c0,0,7.69-49.91,9.12-59.19c1.93,14.74,7.58,59.19,7.58,59.19h18.35
	l13.02-76.17H220.25z M82.12,85.63h18.36l12.87-76.17H94.98L82.12,85.63z M293.08,9.94v76.17h-16.4c0,0,1.06-14.74,1.17-16.28
	h-14.58c-0.3,1.1-4.42,16.28-4.42,16.28h-16.92l24.88-71.78l-10.63-4.42L293.08,9.94z M280.43,17.17h-2.78
	c-0.32,1.12-12.08,43.37-12.62,45.29h13.51C278.6,61.01,280.37,18.75,280.43,17.17z"/>
<path fill="#FFFFFF" d="M25.3,77.42c-0.02-0.75,0.02-2.95,0.79-7.19c0.01-0.01,2.18-13.11,2.7-16.24h15.15
	c-0.31,1.76-3.2,18.8-3.19,19.09c0.04,1.82,1.34,2.91,3.47,2.91c2.99,0,3.66-2.28,3.92-4l3.03-17.89c-0.04-1.93-1.25-2.88-3.62-4.05
	l-10.2-4.91c-3.64-1.78-5.53-4.3-5.6-7.47c-0.02-0.69,2.34-14.58,2.34-14.58c1-5.71,2.09-9.45,4.67-11.6l1.12-0.94
	c0,0-3.7-1.28-5.99-2.07c6.27,0,21.53-0.01,21.53-0.01c12.65,0,16.89,1.03,17.03,7.1c0.03,1.31-2.34,15.7-2.75,18.15H54.69
	c0.3-1.7,2.22-12.51,2.22-12.51c0.08-0.56,0.11-1.07,0.1-1.49c-0.04-1.7-1.29-2.71-3.35-2.71c-3.08,0-3.78,2.22-4.04,3.9
	l-2.06,11.88c-0.12,0.74-0.11,1.36-0.1,1.86c0.04,1.7,1.03,2.78,3.65,3.97l9.67,4.62c2.62,1.29,5.76,3.62,5.85,7.47
	c0.02,0.6-0.12,1.43-0.27,2.4l-2.83,16.8c-2.15,12.42-3.93,14.63-21.45,14.63C28.87,84.53,25.42,83.07,25.3,77.42 M122.16,84.02
	h28.71c0.14-0.82,0.59-3.44,0.74-4.28h-13.55l5.78-33.94h13.59c0.14-0.86,0.54-3.13,0.74-4.28H144.6l4.39-26.16h13.59
	c0.14-0.88,0.56-3.28,0.73-4.29h-28.84C134.26,12.37,122.45,82.27,122.16,84.02 M220.64,84.02l12.47-72.96h-11.5l-10.3,62.3
	l-1.58-0.05l-6.79-62.25h-17.08l-12.31,72.96h12.02l9.77-63.39l1.59,0.01l8.15,63.38H220.64z M84.02,84.02h15.11
	c0.22-1.3,12.01-71.15,12.32-72.96H96.33C96.12,12.37,84.32,82.22,84.02,84.02 M291.58,84.51l-0.2-72.96l-27.76-0.03l5.23,1.83
	l-24.67,71.16h13.44l4.43-16.28h17.52l-1.16,16.28H291.58z M262.92,64.07l13.51-48.51h5.68l-2.03,48.51H262.92"/>
</svg>
