<svg xmlns="http://www.w3.org/2000/svg"  viewBox="0 0 24 24" width="24px" height="24px"><linearGradient id="5e1CdwyU8c4ZK9gRU73Dua" x1="0" x2="24" y1="12" y2="12" gradientUnits="userSpaceOnUse"><stop offset="0" stop-color="#95dcf6"/><stop offset="1" stop-color="#507eff"/></linearGradient><path fill="url(#5e1CdwyU8c4ZK9gRU73Dua)" d="M20.4970703,10.6772461C20.4990234,10.6186523,20.5,10.5595703,20.5,10.5 C20.5,6.9160156,17.5839844,4,14,4c-2.3662109,0-4.5400391,1.2973633-5.6796875,3.347168C7.8291016,7.1191406,7.2949219,7,6.75,7 c-1.9355469,0-3.5341797,1.4746094-3.7246094,3.4257812C1.203125,11.2114258,0,13.0097656,0,15c0,2.7568359,2.2431641,5,5,5h14.25 c2.6191406,0,4.75-2.1308594,4.75-4.75C24,13.0883789,22.5517578,11.2319336,20.4970703,10.6772461z"/><radialGradient id="5e1CdwyU8c4ZK9gRU73Dub" cx="12.333" cy="19.75" r="10.198" gradientUnits="userSpaceOnUse"><stop offset="0" stop-color="#009ada"/><stop offset="1" stop-color="#1e88e5" stop-opacity="0"/></radialGradient><path fill="url(#5e1CdwyU8c4ZK9gRU73Dub)" d="M20.4970703,10.6772461C20.4990234,10.6186523,20.5,10.5595703,20.5,10.5 C20.5,6.9160156,17.5839844,4,14,4c-2.3662109,0-4.5400391,1.2973633-5.6796875,3.347168C7.8291016,7.1191406,7.2949219,7,6.75,7 c-1.9355469,0-3.5341797,1.4746094-3.7246094,3.4257812C1.203125,11.2114258,0,13.0097656,0,15c0,2.7568359,2.2431641,5,5,5h14.25 c2.6191406,0,4.75-2.1308594,4.75-4.75C24,13.0883789,22.5517578,11.2319336,20.4970703,10.6772461z"/><linearGradient id="5e1CdwyU8c4ZK9gRU73Duc" x1="14.944" x2="23.556" y1="13.242" y2="17.258" gradientUnits="userSpaceOnUse"><stop offset="0" stop-color="#fff" stop-opacity=".06"/><stop offset="1" stop-color="#fff" stop-opacity="0"/></linearGradient><circle cx="19.25" cy="15.25" r="4.75" fill="url(#5e1CdwyU8c4ZK9gRU73Duc)"/><linearGradient id="5e1CdwyU8c4ZK9gRU73Dud" x1="8.594" x2="1.344" y1="12.563" y2="17.48" gradientUnits="userSpaceOnUse"><stop offset="0" stop-color="#fff" stop-opacity="0"/><stop offset="1" stop-color="#fff" stop-opacity=".06"/></linearGradient><circle cx="5" cy="15" r="5" fill="url(#5e1CdwyU8c4ZK9gRU73Dud)"/><circle cx="6.75" cy="10.75" r="3.75" fill="#56C7DA" opacity=".2"/><linearGradient id="5e1CdwyU8c4ZK9gRU73Due" x1="14" x2="14" y1="4" y2="17" gradientUnits="userSpaceOnUse"><stop offset="0" stop-color="#00accd" stop-opacity=".2"/><stop offset=".127" stop-color="#1ab4d2" stop-opacity=".175"/><stop offset=".4" stop-color="#5ccadf" stop-opacity=".12"/><stop offset=".793" stop-color="#c5ecf4" stop-opacity=".041"/><stop offset="1" stop-color="#fff" stop-opacity="0"/></linearGradient><circle cx="14" cy="10.5" r="6.5" fill="url(#5e1CdwyU8c4ZK9gRU73Due)"/><linearGradient id="5e1CdwyU8c4ZK9gRU73Duf" x1="2.457" x2="23.088" y1="8.638" y2="18.259" gradientUnits="userSpaceOnUse"><stop offset="0" stop-color="#fff" stop-opacity=".1"/><stop offset="1" stop-color="#fff" stop-opacity="0"/></linearGradient><path fill="url(#5e1CdwyU8c4ZK9gRU73Duf)" d="M20.4970703,10.6772461C20.4990234,10.6186523,20.5,10.5595703,20.5,10.5 C20.5,6.9160156,17.5839844,4,14,4c-2.3662109,0-4.5400391,1.2973633-5.6796875,3.347168C7.8291016,7.1191406,7.2949219,7,6.75,7 c-1.9355469,0-3.5341797,1.4746094-3.7246094,3.4257812C1.203125,11.2114258,0,13.0097656,0,15c0,2.7568359,2.2431641,5,5,5h14.25 c2.6191406,0,4.75-2.1308594,4.75-4.75C24,13.0883789,22.5517578,11.2319336,20.4970703,10.6772461z"/></svg>