<svg fill="#8e8e93" xmlns="http://www.w3.org/2000/svg"  viewBox="0 0 50 50" width="48px" height="48px"><path d="M 11.316406 3.0058594 C 10.705197 3.0483281 10.052406 3.2635469 9.4257812 3.7011719 C 9.3597812 3.7461719 2.9179531 8.4150625 3.0019531 11.039062 C 3.2409531 18.521062 10.52475 27.329391 16.59375 33.400391 C 22.66375 39.472391 31.469469 46.76 38.980469 47 L 39.029297 47 C 41.636297 47 46.244109 40.637219 46.287109 40.574219 C 46.810109 39.829219 47.057328 38.975016 46.986328 38.166016 C 46.915328 37.366016 46.547609 36.677391 45.974609 36.275391 C 45.291609 35.796391 37.908484 30.888703 37.021484 30.345703 C 36.141484 29.805703 34.850359 29.890313 33.568359 30.570312 C 32.847359 30.950312 30.635516 32.207875 29.603516 32.796875 C 28.694516 32.159875 26.475047 30.473094 22.998047 26.996094 C 19.521047 23.520094 17.833219 21.299578 17.199219 20.392578 C 17.789219 19.360578 19.048781 17.148734 19.425781 16.427734 C 20.113781 15.124734 20.194578 13.826031 19.642578 12.957031 C 19.104578 12.109031 14.217844 4.7009063 13.714844 4.0039062 C 13.238594 3.3457812 12.335088 2.9350781 11.316406 3.0058594 z M 39.990234 6.9902344 A 1.0001 1.0001 0 0 0 39.292969 8.7070312 L 43.585938 13 L 29 13 A 1.0001 1.0001 0 1 0 29 15 L 43.585938 15 L 39.292969 19.292969 A 1.0001 1.0001 0 1 0 40.707031 20.707031 L 46.619141 14.794922 A 1.0001 1.0001 0 0 0 46.623047 13.207031 A 1.0001 1.0001 0 0 0 46.617188 13.203125 L 40.707031 7.2929688 A 1.0001 1.0001 0 0 0 39.990234 6.9902344 z"/></svg>